# xmcd
#
# Track frame offsets:
# 151
# 16006
# 35299
# 57452
# 76815
# 94384
# 115185
# 131400
# 145911
# 160250
# 183779
# 197634
# 213019
#
# Disc length: 3124 seconds
#
#
# Revision: 2
# Processed by: cddbd v1.5.2PL0 Copyright (c) Steve Scherf et al.
# Submitted via: ExactAudioCopy v0.95a5 
#
DISCID=a20c320d
DTITLE=周华健 - 15年主打歌全记录
DYEAR=2002
DGENRE=Classical
TTITLE0=明天我要嫁给你
TTITLE1=你现在还好吗
TTITLE2=飞越迷雾
TTITLE3=孤枕难眠
TTITLE4=是不是只要有爱
TTITLE5=风雨无阻
TTITLE6=我站在全世界的屋顶
TTITLE7=南泥湾
TTITLE8=刀剑如梦
TTITLE9=伤心的歌
TTITLE10=女儿歌
TTITLE11=亲亲我的宝贝
TTITLE12=醉
EXTD=
EXTT0=
EXTT1=
EXTT2=
EXTT3=
EXTT4=
EXTT5=
EXTT6=
EXTT7=
EXTT8=
EXTT9=
EXTT10=
EXTT11=
EXTT12=
PLAYORDER=
